<svg width="64" height="64" viewBox="0 0 64 64" fill="none" xmlns="http://www.w3.org/2000/svg">
<path d="M2.74794 44.509C2.80889 43.7091 2.79365 43.2444 2.88507 42.8025C3.72312 38.7011 3.03745 34.8817 1.27501 31.0724C-0.804868 26.5799 -0.449334 24.8734 3.15172 21.5974C6.24742 18.7836 8.31206 15.5126 9.25169 11.4367C10.077 7.8458 12.2966 5.75576 16.1516 5.73037C20.705 5.69989 24.72 4.25744 28.415 1.55029C31.3685 -0.610849 33.8445 -0.488951 36.7701 1.76869C40.2264 4.4352 43.8935 6.27637 48.3757 6.43128C52.2714 6.56587 54.7525 8.66099 55.3925 12.6074C56.0908 16.9119 58.2368 20.3327 61.307 23.3776C64.258 26.3031 64.6084 28.4338 62.6632 31.9841C60.4969 35.9407 59.6564 40.0242 60.1643 44.4811C60.5782 48.1101 59.0215 50.7055 55.5652 51.9499C51.2403 53.5066 48.0075 56.2899 45.4959 60.1018C43.7259 62.7886 41.0924 63.9136 37.9763 62.7683C33.2858 61.0439 28.6537 61.0643 23.915 62.4762C21.0986 63.3143 18.6454 62.2985 17.1928 59.9037C14.5339 55.5179 11.0344 52.3156 6.29567 50.2992C3.75106 49.2224 2.75048 46.9013 2.74794 44.509ZM5.89696 44.2906C5.69634 46.1293 6.73755 47.1425 8.26635 47.7673C13.0838 49.743 16.8093 52.9428 19.3463 57.5064C20.3241 59.2637 21.67 59.9723 23.7042 59.3018C28.7198 57.6486 33.7176 57.7756 38.6493 59.6853C40.5108 60.4065 41.8898 59.8859 42.9259 58.2174C45.7194 53.7199 49.643 50.6217 54.6281 48.877C56.4845 48.2269 57.3708 46.9724 57.0356 45.0398C56.1061 39.6814 57.3784 34.7852 60.0347 30.1658C60.9134 28.6344 60.8017 27.2783 59.4684 26.0746C55.3671 22.3694 52.8987 17.7931 52.02 12.3306C51.7787 10.8272 50.8645 9.87996 49.2392 9.80124C43.67 9.52951 38.7001 7.74422 34.4667 4.03396C33.2122 2.93434 31.8408 2.92164 30.5228 3.96031C26.1726 7.38868 21.218 8.98859 15.6996 8.9378C14.1428 8.92256 13.0356 9.64125 12.6953 11.198C11.489 16.7545 8.70315 21.318 4.30213 24.9216C3.17712 25.8435 2.86984 27.0421 3.56313 28.3932C6.15092 33.424 7.23022 38.6783 5.89696 44.2906Z" fill="#0D4259"/>
<path d="M51.6975 32.2076C51.4893 42.9955 42.3089 51.9753 31.6733 51.795C20.9616 51.6147 12.0173 42.4114 12.1367 31.6971C12.2586 20.8812 21.5228 11.97 32.4149 12.1935C43.0682 12.4144 51.9032 21.5821 51.6975 32.2076ZM48.4926 32.0755C48.4952 22.5522 41.448 15.3603 32.0669 15.3146C22.63 15.2689 15.4101 22.3973 15.367 31.8038C15.3238 41.3677 22.4954 48.5774 32.0238 48.5545C41.3159 48.5342 48.4901 41.355 48.4926 32.0755Z" fill="#0D4259"/>
<path d="M31.1096 28.8477C30.0125 29.5918 29.3421 30.2699 28.5396 30.5137C27.9656 30.6889 27.026 30.4781 26.607 30.0692C26.2997 29.7721 26.3124 28.5836 26.6349 28.2941C28.3796 26.7221 30.1344 25.0816 32.1457 23.9083C33.6491 23.0322 34.4389 24.5 34.4516 25.7647C34.4948 30.247 34.4237 34.7318 34.2154 39.209C34.1824 39.9252 33.2402 40.6007 32.7196 41.2965C32.1838 40.5956 31.2188 39.915 31.1832 39.1862C31.0156 35.8848 31.1096 32.5656 31.1096 28.8477Z" fill="#0D4259"/>
</svg>
