<svg width="74" height="70" viewBox="0 0 74 70" fill="none" xmlns="http://www.w3.org/2000/svg">
<path d="M10.6956 45.4882C10.6956 44.6031 10.6956 43.8228 10.6956 42.9322C13.0696 42.9322 15.4381 42.9322 17.87 42.9322C17.87 40.1115 17.87 37.3956 17.87 34.5749C15.4794 34.5749 13.1137 34.5749 10.6956 34.5749C10.6956 33.6871 10.6956 32.9068 10.6956 32.0189C13.0641 32.0189 15.4298 32.0189 17.9141 32.0189C17.9141 29.5567 17.9141 27.1937 17.9141 24.7783C18.813 24.7783 19.5905 24.7783 20.4922 24.7783C20.4922 27.1441 20.4922 29.507 20.4922 31.9252C23.3073 31.9252 26.004 31.9252 28.8054 31.9252C28.8054 29.5787 28.8054 27.213 28.8054 24.7866C29.7153 24.7866 30.5204 24.7866 31.4303 24.7866C31.4303 27.1606 31.4303 29.5263 31.4303 31.9362C34.2317 31.9362 36.9283 31.9362 39.7435 31.9362C39.7435 29.5622 39.7435 27.1965 39.7435 24.7783C40.6423 24.7783 41.4254 24.7783 42.3243 24.7783C42.3243 27.1441 42.3243 29.5126 42.3243 31.9721C43.6891 31.9721 44.9409 31.9721 46.2589 31.9721C46.2589 32.8682 46.2589 33.6678 46.2589 34.5667C44.9575 34.5667 43.7084 34.5667 42.3353 34.5667C42.3353 35.7909 42.3353 36.9214 42.3353 38.0904C41.453 38.0904 40.6947 38.0904 39.8096 38.0904C39.8096 36.9545 39.8096 35.8267 39.8096 34.6328C36.9697 34.6328 34.2565 34.6328 31.4882 34.6328C31.4882 37.3625 31.4882 40.0564 31.4882 42.8661C33.4348 42.8661 35.387 42.8661 37.4025 42.8661C37.4025 43.7815 37.4025 44.5811 37.4025 45.4634C35.4338 45.4634 33.501 45.4634 31.4689 45.4634C31.4689 47.9036 31.4689 50.2693 31.4689 52.6902C30.5617 52.6902 29.7566 52.6902 28.8743 52.6902C28.8743 50.3162 28.8743 47.9753 28.8743 45.5572C26.0839 45.5572 23.368 45.5572 20.5335 45.5572C20.5335 47.9174 20.5335 50.2831 20.5335 52.6957C19.6346 52.6957 18.8543 52.6957 17.9582 52.6957C17.9582 50.3217 17.9582 47.956 17.9582 45.4882C15.4794 45.4882 13.1109 45.4882 10.6956 45.4882ZM20.517 34.6135C20.517 37.2826 20.5059 39.8634 20.5418 42.4414C20.5445 42.5986 20.8975 42.8743 21.0988 42.8854C22.0087 42.935 22.9213 42.9074 23.8312 42.9074C25.469 42.9074 27.1069 42.9074 28.7971 42.9074C28.7971 40.0895 28.7971 37.3763 28.7971 34.6135C26.0508 34.6135 23.357 34.6135 20.517 34.6135Z" fill="#0D4259"/>
<path d="M12.7607 5.13533C12.7607 3.82011 12.7525 2.64827 12.7635 1.47643C12.7718 0.53068 13.235 0.00403898 14.0236 0.00403898C14.8011 0.00128171 15.314 0.533435 15.3195 1.46815C15.336 5.11603 15.336 8.76666 15.3167 12.4145C15.3112 13.3107 14.7377 13.8952 13.9988 13.8787C13.2488 13.8621 12.769 13.2886 12.7635 12.3622C12.7552 10.865 12.7607 9.37051 12.7607 7.77956C12.3802 7.7575 12.0687 7.72717 11.7598 7.72717C9.55126 7.72166 7.34544 7.72441 5.13687 7.72441C3.14336 7.72717 2.6112 8.24554 2.60844 10.2198C2.60569 20.1956 2.60568 30.1686 2.60568 40.1445C2.60568 45.1186 2.60293 50.09 2.60568 55.0641C2.60568 57.0962 3.12129 57.6036 5.17271 57.6036C15.2974 57.6063 25.4221 57.6063 35.5469 57.6063C35.897 57.6063 36.2472 57.6063 36.6746 57.6063C36.6746 58.4611 36.6746 59.2607 36.6746 60.1789C36.3575 60.1789 36.0432 60.1789 35.7316 60.1789C25.5187 60.1789 15.3057 60.1182 5.0955 60.2202C2.42095 60.2478 -0.0137281 57.7332 5.82689e-05 55.1579C0.0800193 40.1528 0.0800199 25.1449 0.00281613 10.137C-0.0109702 7.58379 2.36856 5.01125 5.04588 5.11327C7.56878 5.20978 10.1 5.13533 12.7607 5.13533Z" fill="#0D4259"/>
<path d="M71.2839 52.7619C71.2426 40.6327 59.5738 34.71 50.4389 39.1658C50.3066 39.2292 50.177 39.3009 50.0446 39.3615C49.2505 39.7117 48.5447 39.527 48.211 38.8818C47.8553 38.1952 48.1145 37.4756 48.9279 37.0675C52.9563 35.0354 57.1777 34.4453 61.4983 35.8322C67.8842 37.8781 71.9843 42.2236 73.4787 48.7749C75.0173 55.5247 71.8078 62.724 65.932 66.4656C55.1814 73.3147 42.1119 66.427 40.0385 54.9484C39.1865 50.239 40.3638 45.9073 43.1459 42.0196C43.6863 41.2641 44.3977 41.0793 45.0346 41.4984C45.6991 41.9341 45.8039 42.7199 45.2276 43.5002C43.1569 46.3099 42.2636 49.4477 42.3794 52.9273C42.6082 59.6992 47.7506 65.495 54.4756 66.4104C60.3293 67.2073 65.1545 65.3654 68.6893 60.554C70.4981 58.0862 71.2674 55.2435 71.2839 52.7619Z" fill="#0D4259"/>
<path d="M53.8332 17.0331C53.8332 17.8879 53.8332 18.6709 53.8332 19.4954C38.0257 19.4954 22.2707 19.4954 6.46045 19.4954C6.46045 18.6737 6.46045 17.8906 6.46045 17.0331C22.2238 17.0331 38.0009 17.0331 53.8332 17.0331Z" fill="#0D4259"/>
<path d="M49.5842 7.72178C49.5842 6.82567 49.5842 6.0426 49.5842 5.13546C51.2496 5.13546 52.8902 5.07204 54.5198 5.15751C55.5537 5.21266 56.6759 5.28435 57.5803 5.72C59.3422 6.56924 60.2604 8.07471 60.2549 10.1234C60.2301 16.8318 60.2466 23.5403 60.2466 30.2487C60.2466 30.5382 60.2466 30.8278 60.2466 31.2469C59.4746 31.2469 58.7797 31.2717 58.0904 31.2248C57.9443 31.2138 57.754 30.9601 57.6961 30.7836C57.6272 30.5713 57.6741 30.3177 57.6741 30.0833C57.6741 23.4631 57.6768 16.8429 57.6741 10.2226C57.6741 8.24566 57.1392 7.71902 55.1539 7.71902C53.3314 7.71902 51.5088 7.72178 49.5842 7.72178Z" fill="#0D4259"/>
<path d="M54.2026 56.9061C55.7467 55.067 57.1998 53.3354 58.6501 51.6011C60.1997 49.751 61.7438 47.8981 63.2934 46.0479C63.9441 45.2731 64.7492 45.1132 65.3503 45.6288C65.9266 46.1224 65.9128 46.9137 65.2896 47.6609C61.9699 51.6342 58.6474 55.6074 55.3193 59.5751C54.4783 60.576 53.6622 60.5347 52.8846 59.4648C51.1393 57.0605 49.3994 54.6506 47.6651 52.238C47.0365 51.364 47.0833 50.6388 47.7699 50.159C48.4261 49.7013 49.1485 49.9136 49.7772 50.7794C51.2275 52.7784 52.6696 54.783 54.2026 56.9061Z" fill="#0D4259"/>
<path d="M27.2916 7.74108C24.9727 7.74108 22.7751 7.74108 20.4949 7.74108C20.4949 6.87805 20.4949 6.07844 20.4949 5.152C22.7172 5.152 24.9589 5.152 27.2888 5.152C27.2888 4.04082 27.2888 3.0482 27.2888 2.05833C27.2888 1.76331 27.2695 1.46552 27.3081 1.17876C27.4184 0.412242 27.9864 -0.0757955 28.7005 0.00968011C29.4533 0.10067 29.8531 0.561135 29.8558 1.31663C29.8641 5.04998 29.8669 8.78333 29.8531 12.5139C29.8503 13.3328 29.2685 13.9008 28.5516 13.876C27.8403 13.854 27.3109 13.2887 27.2971 12.4422C27.2723 10.9175 27.2916 9.38993 27.2916 7.74108Z" fill="#0D4259"/>
<path d="M41.7425 7.72176C39.5395 7.72176 37.3419 7.72176 35.0754 7.72176C35.0754 6.85046 35.0754 6.04809 35.0754 5.14646C37.3171 5.14646 39.5395 5.14646 41.8942 5.14646C41.8942 3.79815 41.8969 2.54359 41.8942 1.28903C41.8914 0.643828 42.2223 0.125459 42.8179 0.0758282C43.2673 0.0399836 43.7939 0.310196 44.191 0.585924C44.3895 0.723788 44.4364 1.17598 44.4392 1.4848C44.4557 5.1051 44.4612 8.72265 44.4447 12.343C44.4391 13.3108 43.8767 13.9091 43.1101 13.8788C42.3657 13.8484 41.9052 13.2777 41.8969 12.3402C41.8804 10.8981 41.8776 9.45884 41.8638 8.01678C41.8611 7.96164 41.8225 7.90925 41.7425 7.72176Z" fill="#0D4259"/>
</svg>
