<svg width="63" height="90" viewBox="0 0 63 90" fill="none" xmlns="http://www.w3.org/2000/svg">
<path d="M16.7475 68.3108C16.2743 68.1095 15.9153 67.9975 15.5977 67.8148C13.184 66.4347 10.7766 65.0462 8.37535 63.6474C7.38954 63.0725 7.18822 62.5412 7.54727 61.462C8.10762 59.7747 8.72402 58.104 9.23456 56.4022C9.35701 55.9933 9.22834 55.4641 9.08721 55.0345C8.95231 54.6319 8.56006 54.3123 8.43139 53.9076C7.96027 52.4278 6.89559 51.9007 5.44282 51.7305C4.11456 51.5748 2.80706 51.2345 1.49126 50.9688C0.432803 50.755 0.0135753 50.2922 0.00942492 49.2566C-0.00302613 46.4112 -0.00302601 43.5679 0.00942529 40.7226C0.0135757 39.6807 0.430728 39.2138 1.4788 38.9979C3.28233 38.6285 5.09207 38.2881 6.88729 37.8751C7.22143 37.7983 7.55764 37.4953 7.77556 37.2089C8.07442 36.8167 8.18857 36.275 8.51025 35.9118C9.48569 34.8118 9.46909 33.7036 8.8942 32.4065C8.34007 31.1571 7.97895 29.8205 7.54934 28.5172C7.1903 27.4276 7.38332 26.8963 8.3629 26.3255C10.7932 24.9122 13.2276 23.5072 15.6683 22.1146C16.6417 21.5584 17.1543 21.6434 17.8952 22.4715C19.0616 23.777 20.2238 25.0865 21.3528 26.4252C21.77 26.9191 22.1664 27.1993 22.8679 27.0623C23.4718 26.944 24.138 26.9108 24.7336 27.0436C25.761 27.274 26.3441 26.8133 26.9398 26.0786C27.9422 24.8396 29.0193 23.6628 30.0819 22.4736C30.8249 21.6455 31.3376 21.5584 32.3088 22.1125C34.7495 23.5051 37.1839 24.9101 39.6142 26.3255C40.6416 26.9233 40.8097 27.5002 40.3925 28.6956C39.828 30.3145 39.2386 31.927 38.7446 33.5687C38.6222 33.9775 38.7612 34.5026 38.9003 34.9364C39.0207 35.3099 39.4067 35.6046 39.5125 35.9782C39.9733 37.6323 41.231 38.0536 42.7294 38.2591C44.0265 38.4355 45.305 38.7447 46.5876 39.0104C47.5526 39.2117 47.9677 39.7098 47.9719 40.7143C47.9843 43.5596 47.9843 46.4029 47.9719 49.2483C47.9677 50.2881 47.534 50.7634 46.5025 50.9709C44.6969 51.3341 42.8934 51.7014 41.0898 52.0709C40.9072 52.1082 40.6395 52.1041 40.5648 52.2203C40.0812 52.9799 39.7139 53.8246 39.1639 54.5281C38.5184 55.3521 38.5392 56.0992 38.9086 57.0269C39.4959 58.5025 39.9608 60.0279 40.4548 61.5409C40.7723 62.5122 40.5046 63.1888 39.6433 63.6806C37.2587 65.0442 34.8699 66.4015 32.4832 67.7588C31.2981 68.4333 30.8519 68.3689 29.9636 67.3665C28.8035 66.0549 27.6828 64.7079 26.479 63.4378C26.1947 63.1369 25.6551 62.9895 25.2151 62.9439C24.5053 62.8691 23.7644 63.031 23.065 62.9169C22.2432 62.7841 21.7368 63.0476 21.2283 63.6702C20.1615 64.9777 19.0325 66.2354 17.891 67.4786C17.5777 67.8231 17.1232 68.0452 16.7475 68.3108ZM37.377 28.403C35.5693 27.3591 33.8239 26.3276 32.0473 25.3584C31.8668 25.2609 31.3998 25.431 31.2234 25.622C30.0799 26.8631 28.9695 28.1353 27.8737 29.42C27.3777 30.0011 26.8049 30.1547 26.0494 30.1152C24.6859 30.0405 23.3099 30.0405 21.9464 30.1131C21.1951 30.1526 20.614 30.0156 20.118 29.4324C19.0429 28.1726 17.9263 26.9461 16.8533 25.6842C16.4964 25.265 16.2079 25.128 15.6787 25.4518C14.2134 26.3484 12.7275 27.2097 11.2186 28.0294C10.679 28.3221 10.6375 28.6189 10.8285 29.146C11.3805 30.6714 11.8662 32.2197 12.4058 33.7492C12.6797 34.5254 12.5573 35.1605 12.0799 35.8495C11.3722 36.8706 10.6977 37.9374 10.1913 39.0664C9.77002 40.0045 9.18268 40.4777 8.19272 40.6416C6.65485 40.8969 5.13566 41.2705 3.59986 41.5382C3.09139 41.6274 2.92536 41.8205 2.93158 42.3248C2.95441 44.0743 2.95649 45.826 2.93158 47.5755C2.92328 48.1027 3.06233 48.3414 3.62684 48.4368C5.16471 48.6963 6.68391 49.0615 8.2197 49.3334C9.15778 49.4994 9.75134 49.927 10.1602 50.8443C10.677 52.0024 11.3681 53.0961 12.0882 54.1483C12.5801 54.8685 12.6735 55.5326 12.3829 56.3358C11.8309 57.8612 11.3515 59.4115 10.7973 60.9349C10.6209 61.4184 10.7185 61.6571 11.1585 61.8999C12.6859 62.7508 14.2031 63.6225 15.7036 64.5212C16.1768 64.8055 16.4652 64.7349 16.8098 64.3261C17.8392 63.1099 18.9329 61.9456 19.9478 60.717C20.5517 59.9885 21.2179 59.783 22.1643 59.8826C23.3971 60.0113 24.6589 59.9843 25.8959 59.8723C26.7613 59.7955 27.3964 59.9615 27.9609 60.6381C29.0027 61.8854 30.0819 63.1016 31.1819 64.2991C31.3687 64.5025 31.8315 64.7287 31.9975 64.6374C33.799 63.6536 35.5672 62.6076 37.3811 61.5575C36.7606 59.7125 36.1753 57.938 35.5631 56.1739C35.3036 55.4268 35.4406 54.8187 35.8847 54.1587C36.5987 53.1023 37.2939 52.0127 37.8149 50.8567C38.2237 49.9456 38.8007 49.4994 39.745 49.3334C41.3119 49.0574 42.8726 48.7419 44.4209 48.3787C44.6678 48.3206 45.004 47.9284 45.0123 47.6835C45.0622 45.9028 45.0269 44.12 45.0476 42.3393C45.0538 41.8516 44.921 41.6295 44.398 41.5382C42.8 41.2601 41.2185 40.8907 39.6205 40.6043C38.7363 40.4465 38.2216 39.99 37.8398 39.1619C37.3209 38.0349 36.6921 36.9412 35.9719 35.9305C35.4178 35.1543 35.3078 34.4549 35.6253 33.5791C36.2376 31.8855 36.7834 30.1671 37.377 28.403Z" fill="#0D4259"/>
<path d="M27.031 70.1912C28.0749 70.1912 28.9715 70.1912 29.949 70.1912C29.949 71.5423 29.949 72.8435 29.949 74.2195C31.2233 74.4935 32.4291 74.7861 33.6474 75.0019C34.4028 75.1368 34.849 75.5249 35.1728 76.2098C35.5982 77.1064 36.086 77.9843 36.6318 78.8145C37.051 79.4516 37.1382 80.0493 36.8788 80.7529C36.5239 81.7179 36.2437 82.712 35.8701 83.6688C35.6397 84.2603 35.7933 84.5799 36.3329 84.8663C37.105 85.2752 37.8563 85.7276 38.5827 86.2112C39.0932 86.5515 39.4377 86.5391 39.8321 86.0182C40.4547 85.1984 41.1665 84.4471 41.812 83.6418C42.2914 83.0441 42.8684 82.876 43.628 82.9424C44.5515 83.0234 45.4937 83.0109 46.4194 82.9383C47.1395 82.8802 47.6999 83.0337 48.1606 83.5982C48.8538 84.445 49.5864 85.2586 50.2672 86.1136C50.5868 86.5142 50.869 86.5557 51.2945 86.2838C52.1101 85.7629 52.9382 85.2586 53.7891 84.7978C54.2872 84.528 54.3287 84.2063 54.1585 83.7228C53.787 82.6643 53.3719 81.6079 53.1312 80.5184C53.0191 80.0078 53.1603 79.3665 53.3844 78.8726C53.8202 77.9117 54.3391 76.9777 54.9347 76.1081C55.2398 75.664 55.7337 75.2136 56.2318 75.0642C57.4501 74.6989 58.7182 74.508 60.0028 74.2403C60.0028 72.7605 60.0028 71.3306 60.0028 69.7761C58.8261 69.5208 57.6265 69.2178 56.4124 69.0103C55.6175 68.8733 55.1568 68.4727 54.8185 67.7526C54.3972 66.8539 53.7953 66.0383 53.3886 65.1334C53.1665 64.6395 53.0212 64.0023 53.1291 63.4897C53.3533 62.4271 53.7268 61.3894 54.1253 60.3745C54.3764 59.7353 54.2063 59.4095 53.6376 59.1106C52.8655 58.7039 52.1163 58.2473 51.3858 57.7678C50.9064 57.4524 50.5805 57.469 50.209 57.9505C49.5802 58.7661 48.8683 59.5174 48.227 60.3247C47.7269 60.9557 47.1312 61.1321 46.3343 61.0553C45.3837 60.964 44.4166 61.0345 43.41 61.0345C43.2461 60.0861 43.0925 59.204 42.9119 58.1601C43.8417 58.1082 44.703 58.1124 45.5477 57.992C45.9898 57.9297 46.5065 57.7512 46.8033 57.4462C47.6272 56.5952 48.3474 55.6426 49.1236 54.744C49.8375 53.9159 50.3979 53.8163 51.3401 54.3683C53.1187 55.4123 54.887 56.4686 56.6511 57.5354C57.5788 58.0958 57.7656 58.7163 57.4065 59.754C57.0101 60.9038 56.595 62.0494 56.2734 63.222C56.1737 63.5831 56.2858 64.0418 56.4103 64.4195C56.9022 65.9159 57.969 66.6153 59.538 66.7024C60.2768 66.7439 61.0053 66.9888 61.7379 67.1486C62.5556 67.3271 62.9748 67.8626 62.981 68.6782C62.9976 70.8968 63.0039 73.1175 62.979 75.3361C62.9686 76.2804 62.456 76.7702 61.3809 76.986C60.31 77.1998 59.2225 77.3492 58.1723 77.6377C57.7531 77.7518 57.3588 78.113 57.0537 78.4533C56.0119 79.6073 56.0554 80.8691 56.7009 82.2202C57.0329 82.9175 57.1886 83.6999 57.4439 84.4367C57.7573 85.3478 57.4729 86.0265 56.6677 86.5038C54.8953 87.554 53.1229 88.6062 51.3422 89.6397C50.3958 90.1897 49.8375 90.0922 49.1257 89.2662C48.3495 88.3675 47.6314 87.4149 46.8054 86.564C46.5086 86.2589 45.9939 86.1199 45.5518 86.0078C44.0057 85.6155 43.0572 86.454 42.252 87.6349C41.8493 88.2264 41.345 88.7494 40.8718 89.2911C40.1828 90.0756 39.6162 90.1897 38.73 89.6729C36.8974 88.602 35.0773 87.5041 33.253 86.4166C32.4997 85.9663 32.2838 85.3146 32.5516 84.4927C32.948 83.2766 33.3921 82.0749 33.7262 80.8421C33.8321 80.454 33.7159 79.9642 33.5851 79.5595C33.1098 78.0943 32.0535 77.426 30.528 77.3264C29.7581 77.2766 28.9985 77.0296 28.2368 76.8594C27.5063 76.6955 27.0601 76.214 27.0435 75.4855C27.004 73.736 27.031 71.9926 27.031 70.1912Z" fill="#0D4259"/>
<path d="M60.0153 20.2052C60.0153 18.6819 60.0153 17.254 60.0153 15.7389C58.7887 15.4754 57.585 15.1848 56.3647 14.969C55.6072 14.8341 55.163 14.446 54.8393 13.7611C54.4138 12.8645 53.8182 12.0447 53.4197 11.1357C53.1893 10.6127 53.0357 9.94651 53.1478 9.40691C53.3657 8.34431 53.7725 7.31699 54.144 6.29174C54.3329 5.77081 54.2955 5.4346 53.7538 5.14819C52.9258 4.71029 52.1267 4.21634 51.3422 3.70787C50.8898 3.41524 50.5847 3.44222 50.2402 3.8822C49.5864 4.71859 48.8621 5.50101 48.198 6.3291C47.7165 6.92889 47.1395 7.09077 46.382 7.02435C45.4585 6.94341 44.5162 6.95587 43.5906 7.03058C42.8705 7.08869 42.3122 6.93096 41.8514 6.36438C41.1811 5.54044 40.4588 4.75802 39.8092 3.91748C39.4419 3.44014 39.1181 3.41109 38.6346 3.72862C37.877 4.22464 37.1029 4.70198 36.3018 5.12121C35.7269 5.42215 35.6813 5.77081 35.8909 6.33532C36.2728 7.35849 36.6671 8.38997 36.8809 9.45257C36.9909 9.99632 36.8352 10.6667 36.6007 11.1918C36.196 12.0945 35.592 12.906 35.1583 13.7985C34.8407 14.446 34.4194 14.8278 33.7013 14.9607C32.4769 15.1848 31.2648 15.4671 29.9822 15.7389C29.9822 17.0817 29.9822 18.3872 29.9822 19.7611C28.9902 19.7611 28.0729 19.7611 27.0476 19.7611C27.0476 17.9617 27.0061 16.1603 27.0684 14.3609C27.0912 13.6864 27.5852 13.2526 28.2783 13.1094C29.4696 12.8645 30.6754 12.6611 31.8459 12.3394C32.2652 12.2232 32.6574 11.86 32.9625 11.5217C34.0085 10.3678 33.9545 9.10598 33.3112 7.75489C32.9791 7.05756 32.8214 6.27721 32.5703 5.53837C32.2776 4.67708 32.4976 4.01088 33.2883 3.54184C35.1147 2.4564 36.939 1.36889 38.7612 0.279311C39.5643 -0.202181 40.2534 -0.0402993 40.8407 0.648733C41.6314 1.57644 42.3744 2.5498 43.2191 3.42354C43.5138 3.72862 44.0347 3.8573 44.4768 3.97144C45.9815 4.35954 46.9175 3.56051 47.7124 2.40659C48.1523 1.7653 48.7002 1.19664 49.2149 0.6093C49.7836 -0.0423749 50.4602 -0.191804 51.2239 0.260633C53.0773 1.36059 54.9327 2.4564 56.7735 3.57712C57.5829 4.07106 57.7531 4.72481 57.4273 5.67742C57.035 6.82927 56.6075 7.97073 56.29 9.14333C56.1841 9.53143 56.3024 10.0212 56.4332 10.4259C56.9064 11.8932 57.9669 12.5594 59.4923 12.6549C60.2312 12.7006 60.9575 12.9558 61.6902 13.1032C62.5099 13.2671 62.9707 13.7756 62.979 14.5933C63.006 16.8431 63.008 19.0949 62.979 21.3446C62.9665 22.264 62.429 22.7476 61.3415 22.9613C60.3017 23.1668 59.2433 23.3079 58.2263 23.5985C57.7801 23.7251 57.3588 24.0987 57.035 24.4577C56.0181 25.5805 56.0534 26.8174 56.6822 28.1415C57.0143 28.8409 57.1928 29.613 57.4231 30.358C57.7386 31.3729 57.5145 31.9727 56.6324 32.4957C54.887 33.5293 53.1395 34.5607 51.3858 35.5839C50.3979 36.1609 49.8396 36.0654 49.0966 35.1979C48.3225 34.2972 47.5982 33.3508 46.7784 32.4936C46.5024 32.2052 46.0147 32.0308 45.6017 31.9769C44.7466 31.8669 43.877 31.8731 42.9223 31.8274C43.0904 30.8126 43.2378 29.9284 43.3789 29.0838C44.5661 29.0153 45.7075 28.8845 46.8448 28.9177C47.2807 28.9302 47.7954 29.229 48.115 29.5528C48.8767 30.3331 49.5657 31.1903 50.2402 32.0495C50.5868 32.4895 50.8898 32.5185 51.3422 32.2259C52.1288 31.7174 52.9278 31.2235 53.7559 30.7877C54.2955 30.5033 54.3349 30.1671 54.1461 29.6462C53.7725 28.6209 53.3678 27.5936 53.1478 26.531C53.0357 25.9914 53.1893 25.3252 53.4197 24.8022C53.8327 23.8662 54.3349 22.9551 54.9202 22.1166C55.244 21.6538 55.7628 21.1889 56.2858 21.0271C57.4709 20.6597 58.714 20.4792 60.0153 20.2052Z" fill="#0D4259"/>
<path d="M39.0372 17.9762C39.0309 14.913 41.9282 12.0074 44.9998 11.9991C48.0589 11.9908 50.9769 14.9005 50.979 17.9617C50.979 21.0292 48.0817 23.9347 45.0164 23.9389C41.9469 23.9409 39.0413 21.0437 39.0372 17.9762ZM45.089 14.9358C43.1693 14.9109 41.9967 16.0212 41.9739 17.887C41.9489 19.8026 43.0634 20.9793 44.9271 21.0022C46.8448 21.025 48.0195 19.9126 48.0402 18.0489C48.0631 16.1271 46.9548 14.9586 45.089 14.9358Z" fill="#0D4259"/>
<path d="M50.977 72.0071C50.9729 75.0725 48.0694 77.9697 44.9999 77.9697C41.9387 77.9697 39.0269 75.0517 39.0352 71.9926C39.0435 68.9231 41.9491 66.0258 45.0124 66.03C48.0839 66.0362 50.9812 68.9397 50.977 72.0071ZM45.0186 75.033C46.9072 75.031 48.0445 73.8853 48.0404 71.9884C48.0362 70.1019 46.8885 68.9625 44.9937 68.9667C43.1051 68.9708 41.9677 70.1164 41.9719 72.0113C41.9781 73.904 43.1196 75.0351 45.0186 75.033Z" fill="#0D4259"/>
<path d="M32.9645 44.9357C32.9853 49.68 28.7307 53.9595 23.9926 53.9574C19.2856 53.9553 15.0435 49.7381 15.0165 45.0332C14.9874 40.2971 19.2441 36.0177 23.9884 36.0115C28.6851 36.0052 32.9438 40.239 32.9645 44.9357ZM30.0258 44.9875C30.0258 41.4428 27.5664 38.9606 24.0403 38.9502C20.4416 38.9378 17.9573 41.3992 17.9532 44.9813C17.949 48.5199 20.4187 51.0124 23.9386 51.0207C27.5415 51.027 30.0258 48.5655 30.0258 44.9875Z" fill="#0D4259"/>
</svg>
