<svg width="56" height="51" viewBox="0 0 56 51" fill="none" xmlns="http://www.w3.org/2000/svg">
<path d="M55.3746 41.0397C53.2864 41.731 49.3254 42.6815 45.3644 42.6815C39.8911 42.6815 35.9347 41.3399 33.177 38.7476C30.4193 36.2418 28.907 32.4398 28.9491 28.1648C28.9912 18.487 36.3421 12.6067 46.1697 12.6067C50.0418 12.6067 53.2864 13.639 54.7519 14.3303L52.9259 19.8468C51.2778 19.1555 49.3582 18.6689 46.0667 18.6689C40.4155 18.6689 36.3982 21.6387 36.3982 27.9465C36.3982 33.9542 41.0101 36.5647 44.5029 36.5328C46.062 36.5192 47.9301 36.36 48.4639 36.1008V30.8435H44.2079V25.045H55.3746V41.0397Z" fill="#0085C0"/>
<path d="M18.6861 12.9841H4.65396H0V19.301H4.65396L7.80498 19.3147V42.0493H7.8518H15.4929H15.5397V19.3147L18.6861 19.301H23.3447V12.9841H18.6861Z" fill="#0085C0"/>
<path d="M27.4556 1.81913C27.4556 1.81913 36.0472 12.3883 36.0472 25.4269C36.0472 38.4656 27.4556 49.0348 27.4556 49.0348C27.4556 49.0348 18.864 38.4701 18.864 25.4315C18.864 12.3929 27.4556 1.81913 27.4556 1.81913ZM27.4556 0C26.8844 0 26.3413 0.254679 25.9854 0.691271C25.6202 1.14605 16.9912 11.9153 16.9912 25.4315C16.9912 38.9477 25.6156 49.7169 25.9854 50.1672C26.3413 50.6038 26.8844 50.8584 27.4556 50.8584C28.0268 50.8584 28.5699 50.6038 28.9258 50.1672C29.291 49.7169 37.92 38.9477 37.92 25.4315C37.92 11.9153 29.291 1.14605 28.9258 0.695819C28.5699 0.254679 28.0268 0 27.4556 0Z" fill="white"/>
<path d="M36.0472 25.4301C36.0472 38.4688 27.4556 49.038 27.4556 49.038C27.4556 49.038 18.864 38.4688 18.864 25.4301C18.864 12.3915 27.4556 1.82233 27.4556 1.82233C27.4556 1.82233 36.0472 12.3915 36.0472 25.4301Z" fill="white"/>
<path d="M34.1555 27.2734C34.1555 29.1653 33.7576 34.4772 33.3924 36.2236C33.4017 36.4464 32.2874 40.9988 30.8875 43.7548C33.28 39.4253 36.0424 32.8263 36.0424 25.427C36.0424 25.2633 36.033 25.0996 36.033 24.9359L34.0759 25.3633C34.1274 26 34.1555 26.6322 34.1555 27.2734Z" fill="#00ADE4"/>
<path d="M32.8353 28.0766C32.7884 27.2722 32.6995 26.4769 32.5824 25.6953L32.0908 25.8043C32.3671 26.5269 32.6199 27.2858 32.8353 28.0766Z" fill="#00ADE4"/>
<path d="M24.0237 43.7547C22.6237 40.9987 21.3315 37.3832 21.3315 33.422C21.3315 31.5074 21.6358 29.6746 22.104 27.9828L19.0466 28.6514C19.6787 34.7273 21.9823 40.0664 24.0237 43.7547Z" fill="#00ADE4"/>
<path d="M23.0918 33.3174C23.0918 39.7162 27.4929 44.9053 27.4929 44.9053C27.4929 44.9053 31.8941 39.7162 31.8941 33.3174C31.8941 30.5114 31.0466 27.9374 30.0961 25.9318L24.2249 27.5144C23.5787 29.2198 23.0918 31.1982 23.0918 33.3174Z" fill="#00ADE4"/>
<path d="M25.0396 5.35148C26.4208 6.18828 33.2987 14.952 34.0806 25.3665L36.0377 24.939C35.827 12.1278 27.4555 1.81781 27.4555 1.81781C27.4555 1.81781 26.4067 3.11394 25.0396 5.35148Z" fill="#00C5EC"/>
<path d="M18.864 25.4315C18.864 26.523 18.9296 27.5963 19.0419 28.6514L22.0993 27.9829C23.7474 22.0389 27.4556 17.8048 27.4556 17.8048C27.4556 17.8048 30.2789 21.0292 32.0908 25.7999L32.5824 25.6908C31.131 16.0357 24.5902 8.28621 23.8457 7.42212C21.4953 11.7562 18.864 18.2141 18.864 25.4315Z" fill="#00C5EC"/>
<path d="M24.2251 27.5144L30.2041 26.1546C28.9867 23.5896 27.4932 21.7296 27.4932 21.7296C27.4932 21.7296 25.5267 24.0581 24.2251 27.5144Z" fill="#00C5EF"/>
</svg>
